<?xml version="1.0" encoding="utf-8"?>
<!-- Generator: Adobe Illustrator 26.1.0, SVG Export Plug-In . SVG Version: 6.00 Build 0)  -->
<svg version="1.1" id="Layer_1" xmlns="http://www.w3.org/2000/svg" xmlns:xlink="http://www.w3.org/1999/xlink" x="0px" y="0px"
	 viewBox="0 0 290.6 290.6" style="enable-background:new 0 0 290.6 290.6;" xml:space="preserve">
<style type="text/css">
	.st0,.st2{fill:#333333;}
	.st1{fill:#F9BA48;}

  @media (prefers-color-scheme:dark) {
    .st0 {
      fill: #fff
    }
  }
</style>
<path class="st0" d="M257.8,243.8c0,2.6-2.1,4.7-4.7,4.7h-239c-2.6,0-4.7-2.1-4.7-4.7v-136h248.4v60.9h9.4V75
	c0-7.8-6.3-14.1-14.1-14.1h-18.8v-14c0-7.8-6.3-14.1-14.1-14.1s-14.1,6.3-14.1,14.1V61H60.9V46.9c0-7.8-6.3-14.1-14.1-14.1
	s-14.1,6.3-14.1,14.1V61H14.1C6.3,60.9,0,67.2,0,75v168.8c0,7.8,6.3,14.1,14.1,14.1h239.1c7.8,0,14.1-6.3,14.1-14.1v-9.4h-9.4
	L257.8,243.8L257.8,243.8L257.8,243.8z M215.6,46.9c0-2.6,2.1-4.7,4.7-4.7s4.7,2.1,4.7,4.7v18.8c0,2.6-2.1,4.7-4.7,4.7
	s-4.7-2.1-4.7-4.7V46.9L215.6,46.9z M42.2,46.9c0-2.6,2.1-4.7,4.7-4.7s4.7,2.1,4.7,4.7v18.8c0,2.6-2.1,4.7-4.7,4.7s-4.7-2.1-4.7-4.7
	V46.9z M14.1,70.3h19.6c1.9,5.4,7.1,9.4,13.2,9.4s11.3-3.9,13.2-9.4h147c1.9,5.4,7.1,9.4,13.2,9.4s11.3-3.9,13.2-9.4h19.6
	c2.6,0,4.7,2.1,4.7,4.7v23.4H9.4V75C9.4,72.4,11.5,70.3,14.1,70.3z"/>
<path class="st0" d="M56.2,121.9H23.4V150h32.8C56.2,150,56.2,121.9,56.2,121.9z M46.9,140.6H32.8v-9.4h14.1V140.6L46.9,140.6z"/>
<path class="st0" d="M103.1,121.9H70.3V150h32.8L103.1,121.9L103.1,121.9z M93.8,140.6H79.7v-9.4h14.1
	C93.8,131.2,93.8,140.6,93.8,140.6z"/>
<path class="st0" d="M150,121.9h-32.8V150H150V121.9z M140.6,140.6h-14.1v-9.4h14.1V140.6z"/>
<path class="st0" d="M196.9,121.9h-32.8V150h32.8V121.9z M187.5,140.6h-14.1v-9.4h14.1V140.6z"/>
<path class="st0" d="M243.8,121.9H211V150h32.8V121.9z M234.4,140.6h-14.1v-9.4h14.1V140.6z"/>
<path class="st0" d="M56.2,164.1H23.4v28.1h32.8C56.2,192.2,56.2,164.1,56.2,164.1z M46.9,182.8H32.8v-9.4h14.1V182.8L46.9,182.8z"
	/>
<path class="st0" d="M103.1,164.1H70.3v28.1h32.8L103.1,164.1L103.1,164.1z M93.8,182.8H79.7v-9.4h14.1
	C93.8,173.4,93.8,182.8,93.8,182.8z"/>
<path class="st0" d="M150,164.1h-32.8v28.1H150V164.1z M140.6,182.8h-14.1v-9.4h14.1V182.8z"/>
<path class="st0" d="M196.9,164.1h-32.8v28.1h32.8V164.1z M187.5,182.8h-14.1v-9.4h14.1V182.8z"/>
<path class="st0" d="M23.4,234.4h32.8v-28.1H23.4V234.4z M32.8,215.6h14.1v9.4H32.8V215.6z"/>
<path class="st0" d="M70.3,234.4h32.8v-28.1H70.3V234.4z M79.7,215.6h14.1v9.4H79.7V215.6z"/>
<path class="st0" d="M117.2,234.4H150v-28.1h-32.8V234.4L117.2,234.4z M126.6,215.6h14.1v9.4h-14.1V215.6z"/>
<path class="st0" d="M164.1,234.4h32.8v-28.1h-32.8V234.4z M173.4,215.6h14.1v9.4h-14.1V215.6L173.4,215.6z"/>
<path class="st1" d="M250.8,239.1c-22,0-39.8-17.9-39.8-39.8s17.9-39.8,39.8-39.8s39.8,17.9,39.8,39.8S272.8,239.1,250.8,239.1z"/>
<path class="st2" d="M252.4,231c-1.9,0-3.5-1.5-3.5-3.4v-3.3c-12.9-1-23.1-11.9-23.1-25c0-3.4,0.6-6.5,1.7-9.2
	c0.7-1.9,2.5-3.1,4.5-3.1c1.3,0,2.5,0.5,3.5,1.5c1.4,1.4,1.8,3.4,1.1,5.2c-0.8,1.7-1.2,3.6-1.2,5.8c0,7.8,5.9,14.2,13.4,15.2v-3.2
	c0-1.9,1.6-3.4,3.5-3.4c0.9,0,1.8,0.4,2.4,1l8.1,8.1c1.4,1.4,1.4,3.5,0,4.9l-8.1,8.1C254.2,230.7,253.3,231,252.4,231z M269.6,211.7
	c-1.3,0-2.5-0.5-3.5-1.5c-1.4-1.4-1.8-3.4-1.1-5.2c0.8-1.7,1.2-3.6,1.2-5.8c0-7.8-5.8-14.2-13.3-15.2v3.1c0,1.9-1.6,3.4-3.5,3.4
	c-0.9,0-1.8-0.4-2.4-1l-8.1-8.1c-0.7-0.7-1-1.5-1-2.5s0.4-1.8,1-2.5l8.1-8.1c0.7-0.7,1.5-1,2.4-1c1.9,0,3.5,1.5,3.5,3.4v3.3
	c6,0.5,11.5,3,15.8,7.3c4.7,4.8,7.3,11.1,7.2,17.8c0,3.4-0.6,6.5-1.7,9.2C273.4,210.4,271.6,211.7,269.6,211.7
	C269.6,211.7,269.6,211.7,269.6,211.7z"/>
</svg>
